<svg width="60" height="60" viewBox="0 0 60 60" fill="none" xmlns="http://www.w3.org/2000/svg">
<path fill-rule="evenodd" clip-rule="evenodd" d="M60 0H0V60H60V0ZM39.76 45H42.96V29.96H30.8V33.76H38.4C38.3733 34.96 38.1867 36.0533 37.84 37.04C37.4933 38.0267 36.9733 38.8667 36.28 39.56C35.6133 40.2267 34.7867 40.7467 33.8 41.12C32.8133 41.4667 31.68 41.6267 30.4 41.6C28.88 41.6 27.56 41.2933 26.44 40.68C25.3467 40.0667 24.4533 39.2533 23.76 38.24C23.0667 37.2 22.5467 36.0267 22.2 34.72C21.88 33.4133 21.72 32.08 21.72 30.72C21.72 29.36 21.88 28.0267 22.2 26.72C22.5467 25.4133 23.0667 24.2533 23.76 23.24C24.4533 22.2 25.3467 21.3733 26.44 20.76C27.56 20.1467 28.88 19.84 30.4 19.84C31.3067 19.84 32.1733 19.96 33 20.2C33.8267 20.44 34.5733 20.8 35.24 21.28C35.9067 21.76 36.4533 22.36 36.88 23.08C37.3333 23.7733 37.6267 24.5867 37.76 25.52H42.64C42.4533 23.92 42 22.5067 41.28 21.28C40.56 20.0533 39.6533 19.04 38.56 18.24C37.4667 17.4133 36.2133 16.8 34.8 16.4C33.4133 15.9733 31.9467 15.76 30.4 15.76C28.2667 15.76 26.3467 16.16 24.64 16.96C22.96 17.76 21.5333 18.84 20.36 20.2C19.1867 21.56 18.28 23.1467 17.64 24.96C17.0267 26.7733 16.72 28.6933 16.72 30.72C16.72 32.7733 17.0267 34.7067 17.64 36.52C18.28 38.3333 19.1867 39.92 20.36 41.28C21.5333 42.64 22.96 43.72 24.64 44.52C26.3467 45.2933 28.2667 45.68 30.4 45.68C32.1333 45.68 33.6667 45.3867 35 44.8C36.3333 44.2133 37.6667 43.16 39 41.64L39.76 45Z" fill="black"/>
</svg>
